# xmcd
#
# Track frame offsets:
#	150
#	4027
#	47103
#	79155
#	111540
#	143429
#	179325
#
# Disc length: 3026 seconds
#
# Revision: 1
# Processed by: cddbd v1.5.2PL0 Copyright (c) Steve Scherf et al.
# Submitted via: audiograbber 1.83.01
#
DISCID=550bd007
DTITLE=Grateful Dead - 82-11-26 Jamaica World Music Festival, Montego Bay, Jama
DTITLE=ica
DYEAR=1900
DGENRE=
TTITLE0=Intro
TTITLE1=Sugaree
TTITLE2=Minglewood Blues
TTITLE3=Loser
TTITLE4=Men Smart, Women Smarter
TTITLE5=Althea
TTITLE6=Let It Grow
EXTD=
EXTT0=
EXTT1=
EXTT2=
EXTT3=
EXTT4=
EXTT5=
EXTT6=
PLAYORDER=
